<svg xmlns="http://www.w3.org/2000/svg" width="900" height="290" style="font-family: -apple-system, BlinkMacSystemFont, 'Segoe UI', Helvetica, Arial, sans-serif;">
  <rect width="100%" height="100%" fill="#0d1117"/>
  <g>
    <line x1="40" y1="220.00" x2="860" y2="220.00" stroke="#30363d"/><text x="32" y="224.00" font-size="10" fill="#c9d1d9" text-anchor="end">0</text><line x1="40" y1="175.00" x2="860" y2="175.00" stroke="#30363d"/><text x="32" y="179.00" font-size="10" fill="#c9d1d9" text-anchor="end">500</text><line x1="40" y1="130.00" x2="860" y2="130.00" stroke="#30363d"/><text x="32" y="134.00" font-size="10" fill="#c9d1d9" text-anchor="end">1k</text><line x1="40" y1="85.00" x2="860" y2="85.00" stroke="#30363d"/><text x="32" y="89.00" font-size="10" fill="#c9d1d9" text-anchor="end">1.5k</text><line x1="40" y1="40.00" x2="860" y2="40.00" stroke="#30363d"/><text x="32" y="44.00" font-size="10" fill="#c9d1d9" text-anchor="end">2k</text>
    <line x1="40.00" y1="40" x2="40.00" y2="220" stroke="#30363d" opacity="0.5"/><line x1="108.33" y1="40" x2="108.33" y2="220" stroke="#30363d" opacity="0.5"/><line x1="176.67" y1="40" x2="176.67" y2="220" stroke="#30363d" opacity="0.5"/><line x1="245.00" y1="40" x2="245.00" y2="220" stroke="#30363d" opacity="0.5"/><line x1="313.33" y1="40" x2="313.33" y2="220" stroke="#30363d" opacity="0.5"/><line x1="381.67" y1="40" x2="381.67" y2="220" stroke="#30363d" opacity="0.5"/><line x1="450.00" y1="40" x2="450.00" y2="220" stroke="#30363d" opacity="0.5"/><line x1="518.33" y1="40" x2="518.33" y2="220" stroke="#30363d" opacity="0.5"/><line x1="586.67" y1="40" x2="586.67" y2="220" stroke="#30363d" opacity="0.5"/><line x1="655.00" y1="40" x2="655.00" y2="220" stroke="#30363d" opacity="0.5"/><line x1="723.33" y1="40" x2="723.33" y2="220" stroke="#30363d" opacity="0.5"/><line x1="791.67" y1="40" x2="791.67" y2="220" stroke="#30363d" opacity="0.5"/><line x1="860.00" y1="40" x2="860.00" y2="220" stroke="#30363d" opacity="0.5"/>
    <line x1="40" y1="220" x2="860" y2="220" stroke="#30363d"/>
    <line x1="40" y1="40"   x2="40"   y2="220" stroke="#30363d"/>
    <path d="M 40.00 97.87 L 108.33 97.87 L 176.67 81.49 L 245.00 81.49 L 313.33 81.49 L 381.67 81.49 L 450.00 79.51 L 518.33 79.51 L 586.67 72.85 L 655.00 69.25 L 723.33 69.25 L 791.67 66.10 L 860.00 66.10" fill="none" stroke="#3fb950" stroke-width="2"/>
    <circle cx="860.00" cy="66.10" r="3" fill="#3fb950"/>
    <text x="40.00" y="235.00" font-size="9" fill="#c9d1d9" text-anchor="middle" transform="rotate(-45 40.00 235.00)">17:04</text><text x="108.33" y="235.00" font-size="9" fill="#c9d1d9" text-anchor="middle" transform="rotate(-45 108.33 235.00)">15:06</text><text x="176.67" y="235.00" font-size="9" fill="#c9d1d9" text-anchor="middle" transform="rotate(-45 176.67 235.00)">17:32</text><text x="245.00" y="235.00" font-size="9" fill="#c9d1d9" text-anchor="middle" transform="rotate(-45 245.00 235.00)">15:34</text><text x="313.33" y="235.00" font-size="9" fill="#c9d1d9" text-anchor="middle" transform="rotate(-45 313.33 235.00)">17:50</text><text x="381.67" y="235.00" font-size="9" fill="#c9d1d9" text-anchor="middle" transform="rotate(-45 381.67 235.00)">17:50</text><text x="450.00" y="235.00" font-size="9" fill="#c9d1d9" text-anchor="middle" transform="rotate(-45 450.00 235.00)">17:59</text><text x="518.33" y="235.00" font-size="9" fill="#c9d1d9" text-anchor="middle" transform="rotate(-45 518.33 235.00)">17:59</text><text x="586.67" y="235.00" font-size="9" fill="#c9d1d9" text-anchor="middle" transform="rotate(-45 586.67 235.00)">18:17</text><text x="655.00" y="235.00" font-size="9" fill="#c9d1d9" text-anchor="middle" transform="rotate(-45 655.00 235.00)">18:31</text><text x="723.33" y="235.00" font-size="9" fill="#c9d1d9" text-anchor="middle" transform="rotate(-45 723.33 235.00)">01:56</text><text x="791.67" y="235.00" font-size="9" fill="#c9d1d9" text-anchor="middle" transform="rotate(-45 791.67 235.00)">12:22</text><text x="860.00" y="235.00" font-size="9" fill="#c9d1d9" text-anchor="middle" transform="rotate(-45 860.00 235.00)">12:22</text>
  </g>
</svg>