<svg xmlns="http://www.w3.org/2000/svg" width="900" height="290" style="font-family: -apple-system, BlinkMacSystemFont, 'Segoe UI', Helvetica, Arial, sans-serif;">
  <rect width="100%" height="100%" fill="white"/>
  <g>
    <line x1="40" y1="220.00" x2="860" y2="220.00" stroke="#e5e7eb"/><text x="32" y="224.00" font-size="10" fill="#111827" text-anchor="end">0</text><line x1="40" y1="175.00" x2="860" y2="175.00" stroke="#e5e7eb"/><text x="32" y="179.00" font-size="10" fill="#111827" text-anchor="end">750</text><line x1="40" y1="130.00" x2="860" y2="130.00" stroke="#e5e7eb"/><text x="32" y="134.00" font-size="10" fill="#111827" text-anchor="end">1.5k</text><line x1="40" y1="85.00" x2="860" y2="85.00" stroke="#e5e7eb"/><text x="32" y="89.00" font-size="10" fill="#111827" text-anchor="end">2.2k</text><line x1="40" y1="40.00" x2="860" y2="40.00" stroke="#e5e7eb"/><text x="32" y="44.00" font-size="10" fill="#111827" text-anchor="end">3k</text>
    <line x1="40.00" y1="40" x2="40.00" y2="220" stroke="#e5e7eb" opacity="0.5"/><line x1="110.69" y1="40" x2="110.69" y2="220" stroke="#e5e7eb" opacity="0.5"/><line x1="181.38" y1="40" x2="181.38" y2="220" stroke="#e5e7eb" opacity="0.5"/><line x1="252.07" y1="40" x2="252.07" y2="220" stroke="#e5e7eb" opacity="0.5"/><line x1="322.76" y1="40" x2="322.76" y2="220" stroke="#e5e7eb" opacity="0.5"/><line x1="393.45" y1="40" x2="393.45" y2="220" stroke="#e5e7eb" opacity="0.5"/><line x1="464.14" y1="40" x2="464.14" y2="220" stroke="#e5e7eb" opacity="0.5"/><line x1="534.83" y1="40" x2="534.83" y2="220" stroke="#e5e7eb" opacity="0.5"/><line x1="605.52" y1="40" x2="605.52" y2="220" stroke="#e5e7eb" opacity="0.5"/><line x1="676.21" y1="40" x2="676.21" y2="220" stroke="#e5e7eb" opacity="0.5"/><line x1="746.90" y1="40" x2="746.90" y2="220" stroke="#e5e7eb" opacity="0.5"/><line x1="817.59" y1="40" x2="817.59" y2="220" stroke="#e5e7eb" opacity="0.5"/>
    <line x1="40" y1="220" x2="860" y2="220" stroke="#9ca3af"/>
    <line x1="40" y1="40"   x2="40"   y2="220" stroke="#9ca3af"/>
    <path d="M 40.00 138.58 L 54.14 138.58 L 68.28 127.66 L 82.41 127.66 L 96.55 127.66 L 110.69 127.66 L 124.83 126.34 L 138.97 126.34 L 153.10 121.90 L 167.24 119.50 L 181.38 119.50 L 195.52 117.40 L 209.66 117.40 L 223.79 117.40 L 237.93 116.14 L 252.07 116.14 L 266.21 112.78 L 280.34 110.08 L 294.48 109.72 L 308.62 109.72 L 322.76 101.08 L 336.90 101.08 L 351.03 101.08 L 365.17 100.00 L 379.31 100.00 L 393.45 93.70 L 407.59 93.70 L 421.72 93.70 L 435.86 89.98 L 450.00 86.68 L 464.14 85.48 L 478.28 85.18 L 492.41 80.44 L 506.55 79.90 L 520.69 79.78 L 534.83 79.60 L 548.97 79.60 L 563.10 76.66 L 577.24 76.18 L 591.38 76.18 L 605.52 70.24 L 619.66 64.90 L 633.79 66.52 L 647.93 67.00 L 662.07 62.02 L 676.21 56.44 L 690.34 56.44 L 704.48 56.44 L 718.62 56.44 L 732.76 56.44 L 746.90 56.98 L 761.03 56.98 L 775.17 56.98 L 789.31 56.98 L 803.45 57.22 L 817.59 57.22 L 831.72 57.22 L 845.86 56.98 L 860.00 57.22" fill="none" stroke="#111827" stroke-width="2"/>
    <circle cx="860.00" cy="57.22" r="3" fill="#111827"/>
    <text x="40.00" y="235.00" font-size="9" fill="#111827" text-anchor="middle" transform="rotate(-45 40.00 235.00)">10.09.2026</text><text x="110.69" y="235.00" font-size="9" fill="#111827" text-anchor="middle" transform="rotate(-45 110.69 235.00)">10.09.2026</text><text x="181.38" y="235.00" font-size="9" fill="#111827" text-anchor="middle" transform="rotate(-45 181.38 235.00)">11.09.2026</text><text x="252.07" y="235.00" font-size="9" fill="#111827" text-anchor="middle" transform="rotate(-45 252.07 235.00)">14.09.2026</text><text x="322.76" y="235.00" font-size="9" fill="#111827" text-anchor="middle" transform="rotate(-45 322.76 235.00)">17.09.2026</text><text x="393.45" y="235.00" font-size="9" fill="#111827" text-anchor="middle" transform="rotate(-45 393.45 235.00)">18.09.2026</text><text x="464.14" y="235.00" font-size="9" fill="#111827" text-anchor="middle" transform="rotate(-45 464.14 235.00)">18.09.2026</text><text x="534.83" y="235.00" font-size="9" fill="#111827" text-anchor="middle" transform="rotate(-45 534.83 235.00)">18.09.2026</text><text x="605.52" y="235.00" font-size="9" fill="#111827" text-anchor="middle" transform="rotate(-45 605.52 235.00)">21.09.2026</text><text x="676.21" y="235.00" font-size="9" fill="#111827" text-anchor="middle" transform="rotate(-45 676.21 235.00)">21.09.2026</text><text x="746.90" y="235.00" font-size="9" fill="#111827" text-anchor="middle" transform="rotate(-45 746.90 235.00)">27.09.2026</text><text x="817.59" y="235.00" font-size="9" fill="#111827" text-anchor="middle" transform="rotate(-45 817.59 235.00)">30.09.2026</text>
  </g>
</svg>